<?xml version="1.0" encoding="UTF-8" standalone="no"?>
<svg width="580" height="640"
     style="background-color: #000000; fill:#ffffff" xmlns="http://www.w3.org/2000/svg">
    <defs>
        <rect style="fill:#ffffff" id="shape" width="20" height="20"/>
        <rect style="fill:#ffffff" id="shapeL" width="40" height="40"/>
        <polygon id="letterC" points="0 0, 5 0, 5 1, 1 1, 1 4, 5 4, 5 5, 0 5"
                 transform="scale(20)"/>
        <polygon id="letterA" points="0 0, 5 0, 5 5, 4 5, 4 1, 1 1, 1 5, 0 5"
                 transform="scale(20)"/>
        <polygon id="letterM" points="0 0, 5 0, 5 5, 4 5, 4 1, 3 1, 3 5, 2 5, 2 1, 1 1, 1 5, 0 5"
                 transform="scale(20)"/>
        <polygon id="letterE" points="0 0, 5 0, 5 1, 1 1, 1 2, 5 2, 5 3, 1 3, 1 4, 5 4, 5 5, 0 5"
                 transform="scale(20)"/>
        <polygon id="letterG" points="0 0, 5 0, 5 1, 1 1, 1 4, 4 4, 4 3, 3 3, 3 2, 5 2, 5 5, 0 5"
                 transform="scale(20)"/>
        <polygon id="letterS" points="2 0, 5 0, 5 1, 3 1, 3 5, 0 5, 0 4, 2 4"
                 transform="scale(20)"/>
    </defs>
    <g id="logo">
        <g id="keyboard">
            <use href="#shapeL" transform="translate(110, 280) scale(1, 1)"/>
            <use href="#shapeL" transform="translate(190, 280) scale(5, 1)"/>
            <use href="#shapeL" transform="translate(430, 280) scale(1, 1)"/>
            <use href="#shapeL" transform="translate(110, 200) scale(5, 1)"/>
            <polygon style="fill: #ffffff"
                     points="3 12, 31 12, 31 16, 7 16, 7 36, 51 36, 51 12, 55 12, 55 40, 3 40" transform="scale(10,10)"/>
        </g>
        <g id="mouse">
            <use href="#shapeL" transform="translate(390, 0) scale(1, 1)"/>
            <polygon style="fill: #ffffff" points="0 0, 4 0, 4 4, 8 4, 8 0, 12 0, 12 20, 0 20" transform="translate(350, 40) scale(10,10)"/>
        </g>
    </g>
    <g id="text">
        <g id="came">
            <use href="#letterC" transform="translate(60, 420)"/>
            <use href="#letterA" transform="translate(180, 420)"/>
            <use href="#letterM" transform="translate(300, 420)"/>
            <use href="#letterE" transform="translate(420, 420)"/>
        </g>
        <g id="games">
            <use href="#letterG" transform="translate(0, 540)"/>
            <use href="#letterA" transform="translate(120, 540)"/>
            <use href="#letterM" transform="translate(240, 540)"/>
            <use href="#letterE" transform="translate(360, 540)"/>
            <use href="#letterS" transform="translate(480, 540)"/>
        </g>
    </g>
</svg>