<?xml version="1.0" encoding="UTF-8" standalone="no"?>
<svg width="29" height="32"
     style="background-color: black; fill:white" xmlns="http://www.w3.org/2000/svg">
<rect width="2" height="2" x="5" y="14"/>
<rect width="10" height="2" x="9" y="14"/>
<rect width="2" height="2" x="21" y="14"/>
<rect width="10" height="2" x="5" y="10"/>
<polygon points="1 6, 15 6, 15 8, 3 8, 3 18, 25 18, 25 6, 27 6, 27 20, 1 20"/>
<rect width="2" height="2" x="19"/>
<polygon points="0 0, 2 0, 2 2, 4 2, 4 0, 6 0, 6 10, 0 10" transform="translate(17, 2) scale(1,1)"/>
<polygon points="0 0, 5 0, 5 1, 1 1, 1 4, 5 4, 5 5, 0 5" transform="translate(3, 21)"/>
<polygon points="0 0, 5 0, 5 5, 4 5, 4 1, 1 1, 1 5, 0 5" transform="translate(9, 21)"/>
<polygon points="0 0, 5 0, 5 5, 4 5, 4 1, 3 1, 3 5, 2 5, 2 1, 1 1, 1 5, 0 5" transform="translate(15, 21)"/>
<polygon points="0 0, 5 0, 5 1, 1 1, 1 2, 5 2, 5 3, 1 3, 1 4, 5 4, 5 5, 0 5" transform="translate(21, 21)"/>
<polygon points="0 0, 5 0, 5 1, 1 1, 1 4, 4 4, 4 3, 3 3, 3 2, 5 2, 5 5, 0 5" transform="translate(0, 27)"/>
<polygon points="0 0, 5 0, 5 5, 4 5, 4 1, 1 1, 1 5, 0 5" transform="translate(6, 27)"/>
<polygon points="0 0, 5 0, 5 5, 4 5, 4 1, 3 1, 3 5, 2 5, 2 1, 1 1, 1 5, 0 5" transform="translate(12, 27)"/>
<polygon points="0 0, 5 0, 5 1, 1 1, 1 2, 5 2, 5 3, 1 3, 1 4, 5 4, 5 5, 0 5" transform="translate(18, 27)"/>
<polygon points="2 0, 5 0, 5 1, 3 1, 3 5, 0 5, 0 4, 2 4" transform="translate(24, 27)"/>
</svg>