<?xml version="1.0" encoding="UTF-8" standalone="no"?>
<svg width="64" height="64"
     style="background-color: black; fill:white" xmlns="http://www.w3.org/2000/svg">
<rect width="4" height="4" x="13" y="28"/>
<rect width="20" height="4" x="21" y="28"/>
<rect width="4" height="4" x="25" y="28"/>
<rect width="20" height="4" x="13" y="20"/>
<polygon points="1 6, 15 6, 15 8, 3 8, 3 18, 25 18, 25 6, 27 6, 27 20, 1 20" transform="translate(3, 0) scale(2 2)"/>
<rect width="4" height="4" x="41"/>
<polygon points="0 0, 2 0, 2 2, 4 2, 4 0, 6 0, 6 10, 0 10" transform="translate(37, 4) scale(2,2)"/>
<polygon points="0 0, 5 0, 5 1, 1 1, 1 4, 5 4, 5 5, 0 5" transform="translate(9, 42) scale(2,2)"/>
<polygon points="0 0, 5 0, 5 5, 4 5, 4 1, 1 1, 1 5, 0 5" transform="translate(21, 42) scale(2,2)"/>
<polygon points="0 0, 5 0, 5 5, 4 5, 4 1, 3 1, 3 5, 2 5, 2 1, 1 1, 1 5, 0 5" transform="translate(33, 42) scale(2,2)"/>
<polygon points="0 0, 5 0, 5 1, 1 1, 1 2, 5 2, 5 3, 1 3, 1 4, 5 4, 5 5, 0 5" transform="translate(45, 42) scale(2,2)"/>
<polygon points="0 0, 5 0, 5 1, 1 1, 1 4, 4 4, 4 3, 3 3, 3 2, 5 2, 5 5, 0 5" transform="translate(3, 54) scale(2,2)"/>
<polygon points="0 0, 5 0, 5 5, 4 5, 4 1, 1 1, 1 5, 0 5" transform="translate(15, 54) scale(2,2)"/>
<polygon points="0 0, 5 0, 5 5, 4 5, 4 1, 3 1, 3 5, 2 5, 2 1, 1 1, 1 5, 0 5" transform="translate(27, 54) scale(2,2)"/>
<polygon points="0 0, 5 0, 5 1, 1 1, 1 2, 5 2, 5 3, 1 3, 1 4, 5 4, 5 5, 0 5" transform="translate(39, 54) scale(2,2)"/>
<polygon points="2 0, 5 0, 5 1, 3 1, 3 5, 0 5, 0 4, 2 4" transform="translate(51, 54) scale(2,2)"/>
</svg>